<svg xmlns="http://www.w3.org/2000/svg" width="11.75" height="10.842" viewBox="0 0 11.75 10.842">
  <g id="gitlab-iconsvg" transform="translate(-0.501 -0.45)">
    <path id="Path_195" data-name="Path 195" d="M22.867,29.865,25.033,23.2H20.7Z" transform="translate(-16.49 -18.573)" fill="#fc6d26" fill-rule="evenodd"/>
    <g id="Group_365" data-name="Group 365" transform="translate(0.502 0.45)">
      <path id="Path_196" data-name="Path 196" d="M9.4,29.865,7.23,23.2H4.2Z" transform="translate(-3.521 -19.023)" fill="#fc6d26" fill-rule="evenodd"/>
      <path id="Path_197" data-name="Path 197" d="M1.181,23.2.52,25.22a.492.492,0,0,0,.184.514L6.4,29.865Z" transform="translate(-0.502 -19.023)" fill="#fc6d26" fill-rule="evenodd"/>
      <path id="Path_198" data-name="Path 198" d="M4.2,4.627H7.23L5.944.588a.231.231,0,0,0-.422,0Zm5.2,6.665,2.167-6.665h3.03Z" transform="translate(-3.521 -0.45)" fill="#fc6d26" fill-rule="evenodd"/>
      <path id="Path_199" data-name="Path 199" d="M37.615,23.2l.661,2.02a.455.455,0,0,1-.184.5L32.4,29.865Z" transform="translate(-26.543 -19.023)" fill="#fc6d26" fill-rule="evenodd"/>
      <path id="Path_200" data-name="Path 200" d="M47.33,4.627H44.3L45.585.588a.231.231,0,0,1,.422,0Z" transform="translate(-36.258 -0.45)" fill="#fc6d26" fill-rule="evenodd"/>
    </g>
  </g>
</svg>
