<svg xmlns="http://www.w3.org/2000/svg" width="11.932" height="11.93" viewBox="0 0 11.932 11.93">
  <path id="instagram" d="M5.893,34.731A3.059,3.059,0,1,0,8.951,37.79,3.054,3.054,0,0,0,5.893,34.731Zm0,5.047A1.989,1.989,0,1,1,7.881,37.79a1.992,1.992,0,0,1-1.989,1.989Zm3.9-5.172a.713.713,0,1,1-.713-.713A.712.712,0,0,1,9.79,34.606Zm2.026.724a3.531,3.531,0,0,0-.964-2.5,3.554,3.554,0,0,0-2.5-.964c-.985-.056-3.937-.056-4.922,0a3.549,3.549,0,0,0-2.5.961,3.542,3.542,0,0,0-.964,2.5c-.056.985-.056,3.937,0,4.922a3.531,3.531,0,0,0,.964,2.5,3.558,3.558,0,0,0,2.5.964c.985.056,3.937.056,4.922,0a3.531,3.531,0,0,0,2.5-.964,3.554,3.554,0,0,0,.964-2.5C11.871,39.265,11.871,36.315,11.815,35.33Zm-1.272,5.976A2.013,2.013,0,0,1,9.409,42.44a13.148,13.148,0,0,1-3.517.24,13.25,13.25,0,0,1-3.517-.24,2.013,2.013,0,0,1-1.134-1.134A13.148,13.148,0,0,1,1,37.79a13.25,13.25,0,0,1,.24-3.517,2.013,2.013,0,0,1,1.134-1.134,13.148,13.148,0,0,1,3.517-.24,13.25,13.25,0,0,1,3.517.24,2.013,2.013,0,0,1,1.134,1.134,13.148,13.148,0,0,1,.24,3.517A13.14,13.14,0,0,1,10.543,41.306Z" transform="translate(0.075 -31.825)" fill="#e1306c"/>
</svg>
