<svg xmlns="http://www.w3.org/2000/svg" width="13.468" height="10.938" viewBox="0 0 13.468 10.938">
  <path id="twitter" d="M12.084,50.808c.009.12.009.239.009.359a7.8,7.8,0,0,1-7.853,7.853A7.8,7.8,0,0,1,0,57.781a5.711,5.711,0,0,0,.667.034,5.528,5.528,0,0,0,3.427-1.179,2.765,2.765,0,0,1-2.581-1.914,3.481,3.481,0,0,0,.521.043,2.919,2.919,0,0,0,.726-.094A2.761,2.761,0,0,1,.547,51.962v-.034a2.78,2.78,0,0,0,1.248.35A2.764,2.764,0,0,1,.94,48.586a7.846,7.846,0,0,0,5.691,2.888,3.116,3.116,0,0,1-.068-.632,2.763,2.763,0,0,1,4.777-1.889,5.434,5.434,0,0,0,1.752-.667,2.753,2.753,0,0,1-1.213,1.521,5.534,5.534,0,0,0,1.589-.427A5.934,5.934,0,0,1,12.084,50.808Z" transform="translate(0 -48.082)" fill="#38a1f3"/>
</svg>
