<svg xmlns="http://www.w3.org/2000/svg" width="38.359" height="30.405" viewBox="0 0 38.359 30.405">
  <g id="adaptive" transform="translate(0 -53.08)">
    <g id="Group_367" data-name="Group 367" transform="translate(0 53.08)">
      <path id="Path_201" data-name="Path 201" d="M36.412,53.08H29.122a1.95,1.95,0,0,0-1.845,1.326H2.61A2.613,2.613,0,0,0,0,57.015V76.236a2.613,2.613,0,0,0,2.61,2.61h8.658v3.4H9.238a.621.621,0,0,0,0,1.243H24.482a.621.621,0,0,0,0-1.243h-2.03v-3.4H31.11a2.613,2.613,0,0,0,2.61-2.61v-.7h2.693a1.949,1.949,0,0,0,1.947-1.947V55.027A1.949,1.949,0,0,0,36.412,53.08ZM1.243,57.015A1.369,1.369,0,0,1,2.61,55.648H27.175v1.408H3.273a.621.621,0,0,0-.621.621V72.26a.621.621,0,0,0,.621.621h23.9v.7a1.937,1.937,0,0,0,.132.7H1.243Zm14.4,4.863a.621.621,0,0,0-.879,0L12.112,64.53a.621.621,0,0,0,0,.879l2.651,2.651a.621.621,0,1,0,.879-.879l-1.591-1.59H27.174v6.048H3.894V58.3H27.175v6.048H14.052l1.59-1.59A.621.621,0,0,0,15.642,61.878Zm5.567,20.365h-8.7v-3.4h8.7v3.4Zm11.268-6.007A1.369,1.369,0,0,1,31.11,77.6H2.61a1.369,1.369,0,0,1-1.367-1.367v-.7H32.477Zm4.64-2.651a.705.705,0,0,1-.7.7H29.122a.705.705,0,0,1-.7-.7V72.218h8.7v1.367Zm0-2.61h-8.7V65.59h3.844l-1.59,1.59a.621.621,0,1,0,.879.879L34.2,65.408a.621.621,0,0,0,0-.879l-2.651-2.651a.621.621,0,0,0-.879.879l1.59,1.59H28.417V57.637h8.7V70.976Zm0-14.582h-8.7V55.027a.705.705,0,0,1,.7-.7h7.291a.705.705,0,0,1,.7.7Z" transform="translate(0 -53.08)" fill="rgba(0,0,0,0.6)"/>
    </g>
  </g>
</svg>
