<svg xmlns="http://www.w3.org/2000/svg" width="36.697" height="26.495" viewBox="0 0 36.697 26.495">
  <g id="code-design" transform="translate(0 -68.109)">
    <path id="Path_202" data-name="Path 202" d="M34.661,68.109H2.037A2.039,2.039,0,0,0,0,70.145V92.568A2.039,2.039,0,0,0,2.037,94.6H34.661A2.039,2.039,0,0,0,36.7,92.568V70.145A2.039,2.039,0,0,0,34.661,68.109Zm-32.624,1.5H34.661a.539.539,0,0,1,.539.539v2.307H1.5V70.145A.539.539,0,0,1,2.037,69.607Zm32.624,23.5H2.037a.539.539,0,0,1-.539-.539V73.95H35.2V92.568A.539.539,0,0,1,34.661,93.107Z" fill="rgba(0,0,0,0.6)"/>
    <path id="Path_203" data-name="Path 203" d="M130.548,207.721a.749.749,0,0,0-1.059,0l-3.382,3.382a.749.749,0,0,0,0,1.059l3.382,3.381a.749.749,0,1,0,1.059-1.059l-2.852-2.852,2.852-2.852A.749.749,0,0,0,130.548,207.721Z" transform="translate(-116.46 -128.953)" fill="rgba(0,0,0,0.6)"/>
    <path id="Path_204" data-name="Path 204" d="M293.119,207.721a.749.749,0,1,0-1.059,1.059l2.852,2.852-2.852,2.852a.749.749,0,1,0,1.059,1.059l3.382-3.381a.749.749,0,0,0,0-1.059Z" transform="translate(-269.984 -128.954)" fill="rgba(0,0,0,0.6)"/>
    <path id="Path_205" data-name="Path 205" d="M212.424,207.58a.749.749,0,0,0-1.006.331l-3.541,7.009a.749.749,0,1,0,1.337.675l3.541-7.009A.749.749,0,0,0,212.424,207.58Z" transform="translate(-192.233 -128.951)" fill="rgba(0,0,0,0.6)"/>
  </g>
</svg>
